# xmcd
#
# Track frame offsets: 
#        150
#        31938
#        48665
#        67355
#        89923
#        108533
#        127958
#        147780
#        169075
#        185093
#        204898
#
# Disc length: 3196 seconds
#
# Revision: 0
# Processed by: cddbd v1.5.2PL0 Copyright (c) Steve Scherf et al.
# Submitted via: ExactAudioCopy v0.99pb5
#
DISCID=a70c7a0b
DTITLE=騰格爾 Ten Ge-Er - 蒙古 Mongolia
DYEAR=1991
DGENRE=Rhythmic Soul
TTITLE0=成吉思汗頌
TTITLE1=桑丹呼仁
TTITLE2=落髮
TTITLE3=不長矮草的地方
TTITLE4=蒙古好
TTITLE5=衰老的人間
TTITLE6=多少年想說的話沒敢說
TTITLE7=回家的晚上
TTITLE8=母親
TTITLE9=教人心酸的蒙古人
TTITLE10=希望之路 and 上你那兒去
EXTD=
EXTT0=
EXTT1=
EXTT2=
EXTT3=
EXTT4=
EXTT5=
EXTT6=
EXTT7=
EXTT8=
EXTT9=
EXTT10=
PLAYORDER=
